<?xml version="1.0" encoding="utf-8"?>
<!-- Generator: Adobe Illustrator 27.0.0, SVG Export Plug-In . SVG Version: 6.00 Build 0)  -->
<svg version="1.1" id="Layer_1" xmlns="http://www.w3.org/2000/svg" xmlns:xlink="http://www.w3.org/1999/xlink" x="0px" y="0px"
	 viewBox="0 0 256 256" style="enable-background:new 0 0 256 256;" xml:space="preserve">
<style type="text/css">
	.st0{fill:#FFFFFF;}
</style>
<g>
	<g>
		<path class="st0" d="M156.2,127l84.1,84.5c7.6,7.7,7.6,20.1,0,27.8s-20,7.7-27.6,0l-84.1-84.5l-84.9,85.3
			c-7.7,7.8-20.2,7.8-27.9,0c-7.7-7.7-7.7-20.3,0-28l84.9-85.4L19.2,44.8c-7.6-7.7-7.6-20.1,0-27.8s20-7.7,27.6,0l81.5,82L211,15.9
			c7.7-7.7,20.2-7.7,27.9,0c7.7,7.8,7.7,20.3,0,28L156.2,127z"/>
	</g>
</g>
</svg>
